# xmcd
#
# Track frame offsets: 
#        150
#        12202
#        25910
#        36415
#        49532
#        62695
#        74532
#        91460
#        103500
#        116772
#
# Disc length: 1810 seconds
#
# Revision: 2
# Processed by: cddbd v1.5.2PL0 Copyright (c) Steve Scherf et al.
# Submitted via: ExactAudioCopy v0.99pb5
#
DISCID=8307100a
DTITLE=Various Artist - The Best of Country Music
DYEAR=1900
DGENRE=Country
TTITLE0=Moe Bandy - It's A Cheating Situation
TTITLE1=Johnny Duncan - It Couldn't Have Been Any Better
TTITLE2=Willie Nelson - Blue Eyes Crying In The Rain
TTITLE3=Lynn Anderson - Rose Garden
TTITLE4=Tanya Tucker - Delta Dawn
TTITLE5=Johnny Paycheck - Take This Job and Shove It
TTITLE6=Johnn Cash - (Ghost) Riders In The Sky
TTITLE7=Tammy Wynette - Stand By Your Man
TTITLE8=Charlie Rich - Behind Closed Doors
TTITLE9=Marty Robins - El Paso City
EXTD=
EXTT0=Moe Bandy with Janie Frickie\n
EXTT1=Johnny Duncan\n
EXTT2=Willie Nelson\n
EXTT3=Lynn Anderson\n
EXTT4=Tanya Tucker\n
EXTT5=Johnny Paycheck\n
EXTT6=Johnny Cash\n
EXTT7=Tammy Wynette\n
EXTT8=Charlie Rich\n
EXTT9=Marty Robbins\n
PLAYORDER=
